<svg id="Capa_1" data-name="Capa 1" xmlns="http://www.w3.org/2000/svg" viewBox="0 0 169.42 186"><defs><style>.cls-1{fill:#00a5e6;}.cls-2{fill:#007dc3;}.cls-3{fill:#43a5bb;}.cls-4{fill:none;}.cls-5{fill:#009fa3;}.cls-6{fill:#009d7b;}.cls-7{fill:#6fc2d5;}.cls-8{fill:#82be6d;}</style></defs><path class="cls-1" d="M17.93,35.78A95.09,95.09,0,0,0,7.33,55.11H78.18a1.63,1.63,0,0,1,1.39.85l1.29,2.29,2.25-7.92a1.69,1.69,0,0,1,1.36-1.24,1.59,1.59,0,0,1,1.59.86l4.75,8.76L93.43,51a1.64,1.64,0,0,1,1.4-1.16,1.59,1.59,0,0,1,1.55.91L100,57.84l2.56-7.24a1.64,1.64,0,0,1,1.3-1.12,1.54,1.54,0,0,1,1.53.71l3.3,4.93h53.45a95.09,95.09,0,0,0-10.6-19.33H84.88v4l-16.18-6-16.19,6v-4Z" transform="translate(0 0)"/><path class="cls-2" d="M52.51,32.11V27.84L67.63,33.4V24.71h-7.8c0-5.39,4-9.76,8.89-9.76s8.91,4.37,8.91,9.76H69.78V33.4l15.1-5.56v4.27h63.9C133.24,12.44,110.31,0,84.73,0s-48.51,12.44-64,32.11Z" transform="translate(0 0)"/><path class="cls-3" d="M108.22,153.89v.73l5.82,3.43a1.05,1.05,0,0,1,.49.91v7a1,1,0,0,1-.85,1,.94.94,0,0,1-1-.85.61.61,0,0,1,0-.19v-6.35l-4.42-2.6v3.11a1,1,0,0,1-.85,1,.94.94,0,0,1-1-.85.61.61,0,0,1,0-.19v-7.66l-12.1,7.66v-6.2H20.68C36.22,173.56,59.15,186,84.73,186s48.52-12.44,64.05-32.11Z" transform="translate(0 0)"/><path class="cls-4" d="M82.29,113.08a1.51,1.51,0,0,0-1.43,1.56v23.84a1.44,1.44,0,0,0,2.86.34,1.93,1.93,0,0,0,0-.34V114.64A1.51,1.51,0,0,0,82.29,113.08Z" transform="translate(0 0)"/><path class="cls-4" d="M78,119.42a1.51,1.51,0,0,0-1.4,1.58v11.92a1.44,1.44,0,0,0,2.86.34,1.93,1.93,0,0,0,0-.34V121a1.51,1.51,0,0,0-1.44-1.58Z" transform="translate(0 0)"/><path class="cls-4" d="M86.27,118.91a1.5,1.5,0,0,0-1.42,1.56v11.92a1.43,1.43,0,0,0,2.85.24,1,1,0,0,0,0-.24V120.47A1.51,1.51,0,0,0,86.27,118.91Z" transform="translate(0 0)"/><path class="cls-4" d="M90.44,113.67A1.52,1.52,0,0,0,89,115.24v23.84a1.43,1.43,0,0,0,2.85.24,1,1,0,0,0,0-.24V115.24A1.51,1.51,0,0,0,90.44,113.67Z" transform="translate(0 0)"/><path class="cls-5" d="M129.78,74.64a4.69,4.69,0,0,1,4.34,3.27h34.23a99.49,99.49,0,0,0-4.84-19.22H107.85a1.59,1.59,0,0,1-1.31-.73l-2-3-2.73,7.73a1.66,1.66,0,0,1-1.4,1.14,1.6,1.6,0,0,1-1.54-.91l-3.58-7-2.58,7.6a1.69,1.69,0,0,1-1.38,1.16h-.15a1.6,1.6,0,0,1-1.4-.87l-4.65-8.58-2.22,7.82a1.67,1.67,0,0,1-1.35,1.24A1.58,1.58,0,0,1,80,63.46l-2.7-4.77H6A101,101,0,0,0,1.11,77.91H108.22a4.69,4.69,0,0,1,4.34-3.27,4.86,4.86,0,0,1,4.64,4.75h7.94A4.86,4.86,0,0,1,129.78,74.64Z" transform="translate(0 0)"/><path class="cls-6" d="M93.74,94.07h23.48v5.31h52c.13-2.11.2-4.23.2-6.38a103.42,103.42,0,0,0-.63-11.4H134.12a4.69,4.69,0,0,1-4.34,3.27,4.9,4.9,0,0,1-4.65-5.11v-.37h-7.94v.37a4.89,4.89,0,0,1-4.66,5.11,4.69,4.69,0,0,1-4.34-3.27H.63A103.42,103.42,0,0,0,0,93c0,2.15.07,4.27.2,6.38H51V94.07H74.44v6.66H89V98.27l4.66,3h.1Z" transform="translate(0 0)"/><path class="cls-4" d="M80.86,138.48a1.44,1.44,0,0,0,2.86.34,1.93,1.93,0,0,0,0-.34V128.21H80.86Z" transform="translate(0 0)"/><path class="cls-4" d="M76.63,132.91a1.44,1.44,0,1,0,2.86.34,1.93,1.93,0,0,0,0-.34v-4.7H76.63Z" transform="translate(0 0)"/><path class="cls-4" d="M84.85,132.39a1.43,1.43,0,0,0,2.85.24,1,1,0,0,0,0-.24v-4.18H84.85Z" transform="translate(0 0)"/><path class="cls-4" d="M89,139.08a1.43,1.43,0,0,0,2.85.24,1,1,0,0,0,0-.24V128.21H89Z" transform="translate(0 0)"/><path class="cls-4" d="M78,119.42a1.51,1.51,0,0,0-1.4,1.58v7.22h2.86V121a1.51,1.51,0,0,0-1.44-1.58Z" transform="translate(0 0)"/><path class="cls-4" d="M86.27,118.91a1.5,1.5,0,0,0-1.42,1.56v7.74H87.7v-7.74A1.51,1.51,0,0,0,86.27,118.91Z" transform="translate(0 0)"/><path class="cls-4" d="M90.44,113.67A1.52,1.52,0,0,0,89,115.24v13h2.85v-13A1.51,1.51,0,0,0,90.44,113.67Z" transform="translate(0 0)"/><path class="cls-4" d="M82.29,113.08a1.51,1.51,0,0,0-1.43,1.56v13.57h2.86V114.64A1.51,1.51,0,0,0,82.29,113.08Z" transform="translate(0 0)"/><path class="cls-7" d="M91.87,128.21v10.87a1.43,1.43,0,0,1-2.85.24,1,1,0,0,1,0-.24V128.21H87.7v4.18a1.43,1.43,0,0,1-2.85.24,1,1,0,0,1,0-.24v-4.18H83.72v10.27a1.44,1.44,0,1,1-2.86.34,1.93,1.93,0,0,1,0-.34V128.21h-1.4v4.7a1.44,1.44,0,0,1-2.86.34,1.93,1.93,0,0,1,0-.34v-4.7H75.48V139a1.44,1.44,0,0,1-2.85.41,1.41,1.41,0,0,1,0-.41v-9.27H6.86a95.73,95.73,0,0,0,11.07,20.5h76.3v-6.65l12.1,7.66v-7.66a1,1,0,0,1,.85-1,.94.94,0,0,1,1,.85.61.61,0,0,1,0,.19v6.65h43.32a95.88,95.88,0,0,0,11.09-20.51H95.85V133a1.43,1.43,0,0,1-2.85.24,1,1,0,0,1,0-.24v-4.78Z" transform="translate(0 0)"/><path class="cls-8" d="M76.63,121a1.44,1.44,0,0,1,2.86-.34,1.93,1.93,0,0,1,0,.34v7.22h1.4V114.64a1.44,1.44,0,0,1,2.86-.34,1.93,1.93,0,0,1,0,.34v13.57h1.13v-7.74a1.43,1.43,0,0,1,2.85-.24,1,1,0,0,1,0,.24v7.74h1.32v-13A1.43,1.43,0,0,1,91.9,115a1,1,0,0,1,0,.24v13H93v-7.14a1.43,1.43,0,0,1,2.85-.24,1,1,0,0,1,0,.24v5H164a99.45,99.45,0,0,0,5-23H117.22v5.32H93.74v-7.13h-.11L89,104.19v-2.47H74.44v6.67H51v-5.32H.49a99.45,99.45,0,0,0,5,23H72.63V115.16a1.44,1.44,0,0,1,2.86-.34,1.93,1.93,0,0,1,0,.34v13.05h1.14Z" transform="translate(0 0)"/></svg>