<svg id="Capa_1" data-name="Capa 1" xmlns="http://www.w3.org/2000/svg" viewBox="0 0 502.19 186"><defs><style>.cls-1{fill:#1d1d1b;}.cls-2{fill:#00a5e6;}.cls-3{fill:#007dc3;}.cls-4{fill:#43a5bb;}.cls-5{fill:none;}.cls-6{fill:#009fa3;}.cls-7{fill:#009d7b;}.cls-8{fill:#6fc2d5;}.cls-9{fill:#82be6d;}</style></defs><path class="cls-1" d="M204.23,144.11a34.7,34.7,0,0,1-.31,4.85,9.37,9.37,0,0,1-1.53,4,4.2,4.2,0,0,1-3.73,1.8H194.5V135H199a4.06,4.06,0,0,1,4.14,2.64A17.47,17.47,0,0,1,204.23,144.11Zm-1.41.9a34.86,34.86,0,0,0-.26-4.72,5.57,5.57,0,0,0-1.19-2.9,3.5,3.5,0,0,0-2.85-1.09h-2.76v17.15H199a3,3,0,0,0,3.18-2.6A25.49,25.49,0,0,0,202.82,145Z" transform="translate(0.63)"/><path class="cls-1" d="M213.94,136.3h-6.58v7.37h6V145h-6v8.43h6.4v1.35H206.1V135h7.84Z" transform="translate(0.63)"/><path class="cls-1" d="M224.68,140.62a6.67,6.67,0,0,1-1.07,4,4,4,0,0,1-3.45,1.47h-3.28v8.72h-1.25V135H220a5,5,0,0,1,3.37,1.19C224.23,136.93,224.68,138.43,224.68,140.62Zm-1.43-.18a4.44,4.44,0,0,0-.83-2.95,3.06,3.06,0,0,0-2.44-1h-3.1v8.19h2.92a3.31,3.31,0,0,0,2.63-.93A5.19,5.19,0,0,0,223.25,140.44Z" transform="translate(0.63)"/><path class="cls-1" d="M236.21,154.8h-1.39l-1.22-5.91h-5.74l-1.22,5.91h-1.37L229.76,135h2.14Zm-3-7.26-2.38-11.29-2.65,11.29Z" transform="translate(0.63)"/><path class="cls-1" d="M247.32,154.8h-1.71a26.27,26.27,0,0,1-.55-5c-.15-2.74-1.07-4.1-2.77-4.1h-3.62v9.14h-1.25V135h4.51a5,5,0,0,1,3.21,1c.84.65,1.33,1.94,1.48,3.86a6.77,6.77,0,0,1-.86,3.41,2.86,2.86,0,0,1-2,1.67,5.14,5.14,0,0,1,1.4.71,2.55,2.55,0,0,1,.91,1.85c.17,1.72.33,3.24.51,4.55a8,8,0,0,0,.7,2.72ZM245.21,140a4.33,4.33,0,0,0-1-2.82,3.63,3.63,0,0,0-2.62-.83h-2.92v8h3.27a3,3,0,0,0,2.45-1,4.26,4.26,0,0,0,.84-2.79A4,4,0,0,0,245.21,140Z" transform="translate(0.63)"/><path class="cls-1" d="M257.89,136.54h-4.16V154.8h-1.26V136.54h-4.33V135h9.75Z" transform="translate(0.63)"/><path class="cls-1" d="M269.14,154.8h-1.39l-1.22-5.91h-5.75l-1.21,5.91H258.2L262.69,135h2.13Zm-3-7.26-2.39-11.29-2.64,11.29Z" transform="translate(0.63)"/><path class="cls-1" d="M282.05,154.8h-1.16V136.43c-.07.46-.47,2.39-1.18,5.79s-1.25,6-1.63,7.74l-1,4.84h-1.65c-.33-1.49-.72-3.31-1.17-5.5s-1-4.87-1.69-8.11-1-4.85-1-4.89l0,18.5h-1.16V134.89h2q.48,2.24,1.39,6.25c.59,2.67,1.16,5.28,1.69,7.8a36.92,36.92,0,0,1,.79,4.51l4-18.56h1.84Z" transform="translate(0.63)"/><path class="cls-1" d="M292,136.3h-6.58v7.37h6.05V145h-6.05v8.43h6.4v1.35h-7.66V135H292Z" transform="translate(0.63)"/><path class="cls-1" d="M302.92,154.8h-2.2L295,136.3v18.5H293.7V135h2.13l5.75,18.31V135h1.34Z" transform="translate(0.63)"/><path class="cls-1" d="M313.55,136.54h-4.16V154.8h-1.25V136.54H303.8V135h9.75Z" transform="translate(0.63)"/><path class="cls-1" d="M325.24,144.77a27.69,27.69,0,0,1-.39,4.55,10.7,10.7,0,0,1-1.53,4.13,3.69,3.69,0,0,1-3.29,1.78,4.13,4.13,0,0,1-4.08-3.09,21.8,21.8,0,0,1-1.15-7.55,30.84,30.84,0,0,1,.36-5,7.63,7.63,0,0,1,1.48-3.58,4.07,4.07,0,0,1,3.39-1.45,4.33,4.33,0,0,1,3.8,2.23Q325.24,139,325.24,144.77Zm-1.41-.22a20.26,20.26,0,0,0-.79-6.42,3.11,3.11,0,0,0-3.2-2.25c-1.39,0-2.37.85-2.93,2.56a19.51,19.51,0,0,0-.85,6.15,19.83,19.83,0,0,0,1,6.42c.64,1.87,1.64,2.81,3,2.81s2.49-.94,3-2.82A24.3,24.3,0,0,0,323.83,144.55Z" transform="translate(0.63)"/><path class="cls-1" d="M342.49,144.11a36.37,36.37,0,0,1-.3,4.85,9.49,9.49,0,0,1-1.53,4,4.21,4.21,0,0,1-3.73,1.8h-4.16V135h4.5a4.06,4.06,0,0,1,4.15,2.64A17.27,17.27,0,0,1,342.49,144.11Zm-1.4.9a33.06,33.06,0,0,0-.27-4.72,5.57,5.57,0,0,0-1.18-2.9,3.54,3.54,0,0,0-2.86-1.09H334v17.15h3.27a3,3,0,0,0,3.18-2.6A25.46,25.46,0,0,0,341.09,145Z" transform="translate(0.63)"/><path class="cls-1" d="M352.2,136.3h-6.58v7.37h6.05V145h-6.05v8.43H352v1.35h-7.65V135h7.83Z" transform="translate(0.63)"/><path class="cls-1" d="M369.61,154.8h-1.39L367,148.89h-5.75L360,154.8h-1.37L363.16,135h2.14Zm-3-7.26-2.38-11.29-2.65,11.29Z" transform="translate(0.63)"/><path class="cls-1" d="M380.15,149.28a9,9,0,0,1-.93,4.06,3.62,3.62,0,0,1-3.58,1.89c-1.89,0-3.18-.48-3.85-1.45a7.85,7.85,0,0,1-1-4.48V135H372v14.36a5.52,5.52,0,0,0,.87,3.57,3.18,3.18,0,0,0,2.57,1,2.94,2.94,0,0,0,2.61-1.2,6.88,6.88,0,0,0,.81-3.76V135h1.26Z" transform="translate(0.63)"/><path class="cls-1" d="M391.05,136.54h-4.16V154.8h-1.25V136.54H381.3V135h9.75Z" transform="translate(0.63)"/><path class="cls-1" d="M402.73,144.77a27.66,27.66,0,0,1-.38,4.55,10.86,10.86,0,0,1-1.53,4.13,3.7,3.7,0,0,1-3.3,1.78,4.12,4.12,0,0,1-4.07-3.09,21.57,21.57,0,0,1-1.15-7.55,32.1,32.1,0,0,1,.35-5,7.74,7.74,0,0,1,1.49-3.58,4,4,0,0,1,3.38-1.45,4.31,4.31,0,0,1,3.8,2.23C402.27,138.24,402.73,140.91,402.73,144.77Zm-1.41-.22a20.26,20.26,0,0,0-.79-6.42,3.1,3.1,0,0,0-3.19-2.25c-1.39,0-2.37.85-2.93,2.56a19.51,19.51,0,0,0-.85,6.15,19.84,19.84,0,0,0,.95,6.42c.64,1.87,1.65,2.81,3,2.81s2.51-.94,3-2.82A24.3,24.3,0,0,0,401.32,144.55Z" transform="translate(0.63)"/><path class="cls-1" d="M416.38,154.8h-1.17V136.43q-.1.69-1.18,5.79L412.41,150c-.37,1.76-.72,3.37-1,4.84h-1.66c-.32-1.49-.71-3.31-1.16-5.5s-1-4.87-1.7-8.11-1-4.85-1-4.89l0,18.5h-1.17V134.89h2q.49,2.24,1.39,6.25c.6,2.67,1.17,5.28,1.7,7.8a39.24,39.24,0,0,1,.79,4.51l4-18.56h1.85Z" transform="translate(0.63)"/><path class="cls-1" d="M428.62,154.8h-1.39L426,148.89h-5.74l-1.22,5.91h-1.37L422.17,135h2.13Zm-3-7.26-2.38-11.29-2.65,11.29Z" transform="translate(0.63)"/><path class="cls-1" d="M438.5,136.54h-4.16V154.8h-1.25V136.54h-4.34V135h9.75Z" transform="translate(0.63)"/><path class="cls-1" d="M441.18,154.8h-1.25V135h1.25Z" transform="translate(0.63)"/><path class="cls-1" d="M452.27,154.8h-9.19v-1.63l7.85-16.87h-7.71V135h8.89v1.64l-7.9,16.86h8Z" transform="translate(0.63)"/><path class="cls-1" d="M463.72,154.8h-1.39l-1.21-5.91h-5.75l-1.22,5.91h-1.36L457.28,135h2.13Zm-3-7.26-2.39-11.29-2.65,11.29Z" transform="translate(0.63)"/><path class="cls-1" d="M474.11,148a11.61,11.61,0,0,1-1,5.19,3.47,3.47,0,0,1-3.33,2,4,4,0,0,1-4.06-2.53,21.64,21.64,0,0,1-1-7.48,53.51,53.51,0,0,1,.23-5.48,8.48,8.48,0,0,1,1.33-3.77,3.9,3.9,0,0,1,3.48-1.66,4,4,0,0,1,3.13,1.41c.82.93,1.23,2.51,1.23,4.72H473a7.07,7.07,0,0,0-.74-3.42,2.83,2.83,0,0,0-2.71-1.36c-1.49,0-2.43,1-2.84,2.94a33.13,33.13,0,0,0-.6,6.62c0,3.42.3,5.71.88,6.89a2.74,2.74,0,0,0,2.53,1.76,2.79,2.79,0,0,0,2.37-1.37,8.27,8.27,0,0,0,.93-4.48Z" transform="translate(0.63)"/><path class="cls-1" d="M477.48,154.8h-1.26V135h1.26Z" transform="translate(0.63)"/><path class="cls-1" d="M490.48,144.77a28.79,28.79,0,0,1-.38,4.55,10.86,10.86,0,0,1-1.53,4.13,3.7,3.7,0,0,1-3.3,1.78,4.14,4.14,0,0,1-4.08-3.09,21.82,21.82,0,0,1-1.14-7.55,30.84,30.84,0,0,1,.36-5,7.63,7.63,0,0,1,1.48-3.58,4,4,0,0,1,3.38-1.45,4.34,4.34,0,0,1,3.81,2.23Q490.48,139,490.48,144.77Zm-1.4-.22a20.55,20.55,0,0,0-.79-6.42,3.12,3.12,0,0,0-3.2-2.25c-1.39,0-2.37.85-2.93,2.56a19.51,19.51,0,0,0-.85,6.15,19.83,19.83,0,0,0,1,6.42c.63,1.87,1.63,2.81,3,2.81s2.5-.94,3-2.82A24.72,24.72,0,0,0,489.08,144.55Zm-1.59-14.42-2.2,3.76h-.81l1.51-3.76Z" transform="translate(0.63)"/><path class="cls-1" d="M501.56,154.8h-2.21l-5.76-18.5v18.5h-1.26V135h2.13l5.75,18.31V135h1.35Z" transform="translate(0.63)"/><path class="cls-1" d="M230.88,162.78l-4.59,12.35v7.5H225V175.1l-4.82-12.32h1.39l4.13,10.33,3.71-10.33Z" transform="translate(0.63)"/><path class="cls-1" d="M247.18,175.85a11.48,11.48,0,0,1-1,5.19,3.46,3.46,0,0,1-3.34,2,3.92,3.92,0,0,1-4.05-2.54,21.3,21.3,0,0,1-1-7.47,51.1,51.1,0,0,1,.23-5.49,8.24,8.24,0,0,1,1.33-3.76,3.87,3.87,0,0,1,3.47-1.66,4,4,0,0,1,3.13,1.41c.82.93,1.23,2.51,1.23,4.72h-1.07a7.07,7.07,0,0,0-.75-3.42,2.81,2.81,0,0,0-2.71-1.36c-1.48,0-2.43,1-2.83,2.94a33.09,33.09,0,0,0-.61,6.62c0,3.42.3,5.71.89,6.89a2.71,2.71,0,0,0,4.89.39,8.16,8.16,0,0,0,.94-4.48Z" transform="translate(0.63)"/><path class="cls-1" d="M259.55,172.6a27.79,27.79,0,0,1-.39,4.55,10.75,10.75,0,0,1-1.52,4.13,3.72,3.72,0,0,1-3.31,1.78,4.14,4.14,0,0,1-4.07-3.08,22,22,0,0,1-1.14-7.56,30.85,30.85,0,0,1,.35-5A7.68,7.68,0,0,1,251,163.8a4,4,0,0,1,3.37-1.44,4.3,4.3,0,0,1,3.81,2.23Q259.55,166.81,259.55,172.6Zm-1.41-.21a20.24,20.24,0,0,0-.79-6.43,3.1,3.1,0,0,0-3.19-2.25c-1.39,0-2.37.85-2.94,2.56a22.26,22.26,0,0,0,.11,12.56q1,2.82,3,2.82,2.25,0,3-2.82A24.28,24.28,0,0,0,258.14,172.39Z" transform="translate(0.63)"/><path class="cls-1" d="M270.62,182.63h-2.2l-5.77-18.5v18.5H261.4V162.78h2.12l5.76,18.32V162.78h1.34Z" transform="translate(0.63)"/><path class="cls-1" d="M281.25,164.37h-4.16v18.26h-1.25V164.37H271.5v-1.59h9.75Z" transform="translate(0.63)"/><path class="cls-1" d="M292.46,182.63h-1.72a26.42,26.42,0,0,1-.55-5q-.21-4.1-2.76-4.09h-3.62v9.14h-1.26V162.78h4.51a5.1,5.1,0,0,1,3.22,1c.83.65,1.33,1.94,1.47,3.86a6.77,6.77,0,0,1-.86,3.41,2.83,2.83,0,0,1-2,1.67,5.44,5.44,0,0,1,1.4.71,2.55,2.55,0,0,1,.91,1.85c.17,1.72.34,3.24.51,4.55a7.65,7.65,0,0,0,.71,2.72Zm-2.12-14.85a4.33,4.33,0,0,0-1-2.82,3.61,3.61,0,0,0-2.62-.83h-2.91v8h3.26a3,3,0,0,0,2.45-1,4.26,4.26,0,0,0,.84-2.79A4,4,0,0,0,290.34,167.78Z" transform="translate(0.63)"/><path class="cls-1" d="M304.74,172.6a27.79,27.79,0,0,1-.39,4.55,10.93,10.93,0,0,1-1.53,4.13,3.7,3.7,0,0,1-3.3,1.78,4.13,4.13,0,0,1-4.07-3.08,21.71,21.71,0,0,1-1.15-7.56,30.75,30.75,0,0,1,.36-5,7.78,7.78,0,0,1,1.48-3.58,4,4,0,0,1,3.38-1.44,4.31,4.31,0,0,1,3.81,2.23Q304.74,166.81,304.74,172.6Zm-1.41-.21a20.2,20.2,0,0,0-.8-6.43,3.09,3.09,0,0,0-3.18-2.25c-1.4,0-2.38.85-2.94,2.56a19.47,19.47,0,0,0-.85,6.15,19.73,19.73,0,0,0,1,6.41q.94,2.82,3,2.82,2.25,0,3-2.82A24.28,24.28,0,0,0,303.33,172.39Z" transform="translate(0.63)"/><path class="cls-1" d="M315.14,182.63h-8V162.78h1.25v18.5h6.73Z" transform="translate(0.63)"/><path class="cls-1" d="M323.67,182.63h-1.26V162.78h1.26Z" transform="translate(0.63)"/><path class="cls-1" d="M335.42,182.63h-2.2l-5.77-18.5v18.5H326.2V162.78h2.12l5.76,18.32V162.78h1.34Z" transform="translate(0.63)"/><path class="cls-1" d="M347.06,171.94a36.75,36.75,0,0,1-.3,4.86,9.39,9.39,0,0,1-1.54,4,4.2,4.2,0,0,1-3.73,1.8h-4.16V162.78h4.52a4.06,4.06,0,0,1,4.14,2.64A17.27,17.27,0,0,1,347.06,171.94Zm-1.41.9a33.19,33.19,0,0,0-.26-4.72,5.53,5.53,0,0,0-1.19-2.9,3.5,3.5,0,0,0-2.85-1.09h-2.76v17.15h3.27a3,3,0,0,0,3.18-2.6A25.49,25.49,0,0,0,345.65,172.84Z" transform="translate(0.63)"/><path class="cls-1" d="M358.49,177.11a9,9,0,0,1-.94,4.06,3.62,3.62,0,0,1-3.58,1.89c-1.89,0-3.17-.49-3.85-1.45a7.94,7.94,0,0,1-1-4.47V162.78h1.25v14.36a5.51,5.51,0,0,0,.87,3.57,3.22,3.22,0,0,0,2.57,1,2.94,2.94,0,0,0,2.61-1.2,6.79,6.79,0,0,0,.82-3.76v-14h1.26Z" transform="translate(0.63)"/><path class="cls-1" d="M369.91,177.29a6.43,6.43,0,0,1-1.28,4.26,4.39,4.39,0,0,1-3.52,1.51,4.78,4.78,0,0,1-2.49-.66,3.36,3.36,0,0,1-1.52-1.82,8.18,8.18,0,0,1-.47-2.32c0-.76-.05-1.24-.05-1.43h1.16a6.37,6.37,0,0,0,.84,3.62,3,3,0,0,0,2.68,1.2,3.16,3.16,0,0,0,2.37-1,4,4,0,0,0,.91-2.88,4.91,4.91,0,0,0-.62-2.8,4.75,4.75,0,0,0-1.9-1.44l-2.06-1a12.49,12.49,0,0,1-1.59-.87,3,3,0,0,1-1.19-1.56,7.93,7.93,0,0,1-.39-2.63,5.76,5.76,0,0,1,1.19-3.8,3.82,3.82,0,0,1,3.09-1.43,4.11,4.11,0,0,1,3.21,1.27,5.4,5.4,0,0,1,1.14,3.74h-1.14a3.68,3.68,0,0,0-.79-2.54,2.8,2.8,0,0,0-2.24-.91,2.64,2.64,0,0,0-2.56,1.22,5.52,5.52,0,0,0-.64,2.56,3.12,3.12,0,0,0,1.77,3.19l2.62,1.24a5.81,5.81,0,0,1,2.73,2.29A5.87,5.87,0,0,1,369.91,177.29Z" transform="translate(0.63)"/><path class="cls-1" d="M380.45,164.37h-4.16v18.26H375V164.37H370.7v-1.59h9.75Z" transform="translate(0.63)"/><path class="cls-1" d="M391.65,182.63h-1.71a26.42,26.42,0,0,1-.55-5q-.22-4.1-2.77-4.09H383v9.14h-1.25V162.78h4.51a5.05,5.05,0,0,1,3.21,1c.84.65,1.33,1.94,1.48,3.86a6.77,6.77,0,0,1-.86,3.41,2.85,2.85,0,0,1-2,1.67,5.44,5.44,0,0,1,1.4.71,2.55,2.55,0,0,1,.91,1.85c.16,1.72.33,3.24.51,4.55a7.93,7.93,0,0,0,.7,2.72Zm-2.11-14.85a4.39,4.39,0,0,0-1-2.82,3.63,3.63,0,0,0-2.62-.83H383v8h3.27a3,3,0,0,0,2.45-1,4.26,4.26,0,0,0,.84-2.79C389.56,168.09,389.55,167.9,389.54,167.78Z" transform="translate(0.63)"/><path class="cls-1" d="M394.93,182.63h-1.25V162.78h1.25Z" transform="translate(0.63)"/><path class="cls-1" d="M407.5,182.63h-1.39l-1.22-5.91h-5.74l-1.22,5.91h-1.37l4.49-19.85h2.14Zm-3-7.26-2.38-11.29-2.65,11.29Z" transform="translate(0.63)"/><path class="cls-1" d="M417.18,182.63h-8V162.78h1.26v18.5h6.73Z" transform="translate(0.63)"/><path class="cls-1" d="M425.59,173.09a1.85,1.85,0,0,1,.49-1.3,1.53,1.53,0,0,1,1.16-.53,1.33,1.33,0,0,1,1.1.58,2.27,2.27,0,0,1,.44,1.38,1.86,1.86,0,0,1-.5,1.32,1.58,1.58,0,0,1-1.18.54,1.29,1.29,0,0,1-1.07-.58A2.24,2.24,0,0,1,425.59,173.09Z" transform="translate(0.63)"/><path class="cls-1" d="M442.54,182.63h-1.26v-15h-3.45v-.95a4.7,4.7,0,0,0,3.05-1.29,4.15,4.15,0,0,0,.75-2.61h.91Z" transform="translate(0.63)"/><path class="cls-1" d="M455.39,171.7a36.74,36.74,0,0,1-.75,8.13q-.75,3.22-3.78,3.23a3.29,3.29,0,0,1-2.6-1.25,4.78,4.78,0,0,1-1.06-3.15H448a2.79,2.79,0,0,0,.9,2.32,3,3,0,0,0,1.89.72c1.06,0,1.85-.72,2.36-2.16a19.57,19.57,0,0,0,.77-6.29,21.73,21.73,0,0,1-1.64,1.46,2.73,2.73,0,0,1-1.64.71,3.26,3.26,0,0,1-2.71-1.55,7.69,7.69,0,0,1-1.12-4.55,12.27,12.27,0,0,1,.89-4.47,3.17,3.17,0,0,1,3.12-2.29c2.08,0,3.36.85,3.83,2.53A25.71,25.71,0,0,1,455.39,171.7Zm-1.43-3a6,6,0,0,0-.88-3.55,2.55,2.55,0,0,0-2.05-1.2,2.31,2.31,0,0,0-2.28,1.56,9.43,9.43,0,0,0-.65,3.64,6.75,6.75,0,0,0,.83,3.74,2.44,2.44,0,0,0,2.1,1.22,2.33,2.33,0,0,0,2.21-1.46A9,9,0,0,0,454,168.66Z" transform="translate(0.63)"/><path class="cls-1" d="M465.47,176.7a8.88,8.88,0,0,1-1.08,4.49,3.42,3.42,0,0,1-3.1,1.87,3.85,3.85,0,0,1-3.24-1.46,7.39,7.39,0,0,1-1.12-4.47,5.68,5.68,0,0,1,1-3.48,15.5,15.5,0,0,1,2-2.2,3,3,0,0,1-1.69-1.2,5.26,5.26,0,0,1-.75-3.1,5.43,5.43,0,0,1,1-3.14,3.4,3.4,0,0,1,3-1.45,3,3,0,0,1,2.83,1.37,5.69,5.69,0,0,1,.83,3,6.61,6.61,0,0,1-.51,2.64,4,4,0,0,1-1.83,1.92,8.29,8.29,0,0,1,1.8,1.7A5.51,5.51,0,0,1,465.47,176.7Zm-1.43,0a7.77,7.77,0,0,0-.58-3,2,2,0,0,0-2-1.39,2.58,2.58,0,0,0-2.29,1.33,6.12,6.12,0,0,0-.81,3.21,7.48,7.48,0,0,0,.7,3.33,2.2,2.2,0,0,0,2,1.45,2.41,2.41,0,0,0,2.22-1.28A7.67,7.67,0,0,0,464,176.73Zm-.36-9.15a5.49,5.49,0,0,0-.55-2.68,1.79,1.79,0,0,0-1.64-1,2,2,0,0,0-1.87,1,4.56,4.56,0,0,0-.75,2.63,3.91,3.91,0,0,0,.79,2.38,2.13,2.13,0,0,0,1.63,1.09,2.06,2.06,0,0,0,1.74-.9A4.24,4.24,0,0,0,463.68,167.58Z" transform="translate(0.63)"/><path class="cls-1" d="M475.42,177.41H474v5.22h-1.26v-5.22h-6v-1.88l5.9-13H474v13.26h1.39Zm-2.65-1.59V165.15l-4.93,10.67Z" transform="translate(0.63)"/><path class="cls-1" d="M248.91,0H202.68V17.34h46.23c2,0,3.63,2,3.63,4.37V88.08c0,2.41-1.63,4.38-3.63,4.38H217.07V36.4H202.68v73.39h46.23c9.94,0,18-9.74,18-21.71V21.71C266.94,9.74,258.85,0,248.91,0Z" transform="translate(0.63)"/><path class="cls-1" d="M340.62,0h-28.2c-9.94,0-18,9.74-18,21.71v88.08h14.4V21.71c0-2.41,1.62-4.37,3.63-4.37h28.2c2,0,3.64,2,3.64,4.37V58.22H317.09V75.56h27.17v34.23h14.39V21.71C358.65,9.74,350.56,0,340.62,0Z" transform="translate(0.63)"/><path class="cls-1" d="M415.1,92.46h-11c-2,0-3.64-2-3.64-4.38V21.71c0-2.41,1.63-4.37,3.64-4.37h46.22V0H404.14c-9.94,0-18,9.74-18,21.71V88.08c0,12,8.09,21.71,18,21.71h46.22V92.46H415.1Z" transform="translate(0.63)"/><rect class="cls-1" x="478.45" width="14.4" height="109.79"/><rect class="cls-1" x="200.13" y="121.41" width="295.48" height="2.29"/><polygon class="cls-1" points="493.31 116.41 502.14 122.55 493.31 128.7 493.31 116.41"/><polygon class="cls-1" points="202.85 128.69 194.01 122.55 202.85 116.41 202.85 128.69"/><path class="cls-2" d="M17.3,35.78A95.1,95.1,0,0,0,6.7,55.11H77.55a1.61,1.61,0,0,1,1.39.85l1.29,2.29,2.25-7.92a1.68,1.68,0,0,1,1.36-1.24,1.59,1.59,0,0,1,1.59.86l4.75,8.76L92.8,51a1.64,1.64,0,0,1,1.4-1.16,1.59,1.59,0,0,1,1.55.91l3.61,7.09,2.56-7.24a1.63,1.63,0,0,1,1.3-1.12,1.55,1.55,0,0,1,1.53.71l3.3,4.93H161.5a95.1,95.1,0,0,0-10.6-19.33H84.25v4l-16.18-6-16.19,6v-4Z" transform="translate(0.63)"/><path class="cls-3" d="M51.88,32.11V27.84L67,33.4V24.71h-7.8c0-5.39,4-9.76,8.89-9.76S77,19.32,77,24.71H69.15V33.4l15.1-5.56v4.27h63.9C132.61,12.44,109.68,0,84.1,0s-48.51,12.44-64,32.11Z" transform="translate(0.63)"/><path class="cls-4" d="M107.59,153.89v.73l5.82,3.43a1.06,1.06,0,0,1,.49.91v7a.95.95,0,1,1-1.89,0v-6.35l-4.42-2.6v3.11a.95.95,0,1,1-1.89,0v-7.66l-12.1,7.66v-6.2H20.05C35.59,173.56,58.52,186,84.1,186s48.52-12.44,64.05-32.11Z" transform="translate(0.63)"/><path class="cls-5" d="M81.66,113.08a1.51,1.51,0,0,0-1.43,1.56v23.84a1.44,1.44,0,1,0,2.86,0V114.64A1.5,1.5,0,0,0,81.66,113.08Z" transform="translate(0.63)"/><path class="cls-5" d="M77.4,119.42A1.51,1.51,0,0,0,76,121v11.92a1.44,1.44,0,1,0,2.86,0V121A1.51,1.51,0,0,0,77.4,119.42Z" transform="translate(0.63)"/><path class="cls-5" d="M85.64,118.91a1.5,1.5,0,0,0-1.42,1.56v11.92a1.43,1.43,0,1,0,2.85,0V120.47A1.5,1.5,0,0,0,85.64,118.91Z" transform="translate(0.63)"/><path class="cls-5" d="M89.81,113.67a1.51,1.51,0,0,0-1.42,1.57v23.84a1.43,1.43,0,1,0,2.85,0V115.24A1.51,1.51,0,0,0,89.81,113.67Z" transform="translate(0.63)"/><path class="cls-6" d="M129.15,74.64a4.69,4.69,0,0,1,4.34,3.27h34.23a99.64,99.64,0,0,0-4.84-19.22H107.22a1.58,1.58,0,0,1-1.31-.73l-2-3-2.73,7.73a1.65,1.65,0,0,1-1.4,1.14,1.6,1.6,0,0,1-1.54-.91l-3.58-7-2.58,7.6a1.68,1.68,0,0,1-1.38,1.16h-.15a1.6,1.6,0,0,1-1.4-.87L84.5,55.23l-2.22,7.82a1.68,1.68,0,0,1-1.35,1.24,1.57,1.57,0,0,1-1.59-.83l-2.7-4.77H5.32A100.37,100.37,0,0,0,.48,77.91H107.59a4.69,4.69,0,0,1,4.34-3.27,4.86,4.86,0,0,1,4.64,4.75h7.94A4.86,4.86,0,0,1,129.15,74.64Z" transform="translate(0.63)"/><path class="cls-7" d="M93.11,94.07h23.48v5.31h52c.13-2.11.2-4.23.2-6.38a102,102,0,0,0-.63-11.4H133.49a4.69,4.69,0,0,1-4.34,3.27,4.9,4.9,0,0,1-4.65-5.11c0-.13,0-.25,0-.37h-7.94c0,.12,0,.24,0,.37a4.9,4.9,0,0,1-4.66,5.11,4.69,4.69,0,0,1-4.34-3.27H0A102,102,0,0,0-.63,93c0,2.15.07,4.27.2,6.38H50.33V94.07H73.81v6.66H88.39V98.27l4.66,3,0,0h.1Z" transform="translate(0.63)"/><path class="cls-5" d="M80.23,138.48a1.44,1.44,0,1,0,2.86,0V128.21H80.23Z" transform="translate(0.63)"/><path class="cls-5" d="M76,132.91a1.44,1.44,0,1,0,2.86,0v-4.7H76Z" transform="translate(0.63)"/><path class="cls-5" d="M84.22,132.39a1.43,1.43,0,1,0,2.85,0v-4.18H84.22Z" transform="translate(0.63)"/><path class="cls-5" d="M88.39,139.08a1.43,1.43,0,1,0,2.85,0V128.21H88.39Z" transform="translate(0.63)"/><path class="cls-5" d="M77.4,119.42A1.51,1.51,0,0,0,76,121v7.22h2.86V121A1.51,1.51,0,0,0,77.4,119.42Z" transform="translate(0.63)"/><path class="cls-5" d="M85.64,118.91a1.5,1.5,0,0,0-1.42,1.56v7.74h2.85v-7.74A1.5,1.5,0,0,0,85.64,118.91Z" transform="translate(0.63)"/><path class="cls-5" d="M89.81,113.67a1.51,1.51,0,0,0-1.42,1.57v13h2.85v-13A1.51,1.51,0,0,0,89.81,113.67Z" transform="translate(0.63)"/><path class="cls-5" d="M81.66,113.08a1.51,1.51,0,0,0-1.43,1.56v13.57h2.86V114.64A1.5,1.5,0,0,0,81.66,113.08Z" transform="translate(0.63)"/><path class="cls-8" d="M91.24,128.21v10.87a1.43,1.43,0,1,1-2.85,0V128.21H87.07v4.18a1.43,1.43,0,1,1-2.85,0v-4.18H83.09v10.27a1.44,1.44,0,1,1-2.86,0V128.21h-1.4v4.7a1.44,1.44,0,1,1-2.86,0v-4.7H74.85V139A1.44,1.44,0,1,1,72,139v-9.27H6.23a95.34,95.34,0,0,0,11.07,20.5H93.6v-6.65l12.1,7.66v-7.66a.95.95,0,1,1,1.89,0v6.65h43.32A95.74,95.74,0,0,0,162,129.72H95.22V133a1.43,1.43,0,1,1-2.85,0v-4.78Z" transform="translate(0.63)"/><path class="cls-9" d="M76,121a1.44,1.44,0,1,1,2.86,0v7.22h1.4V114.64a1.44,1.44,0,1,1,2.86,0v13.57h1.13v-7.74a1.43,1.43,0,1,1,2.85,0v7.74h1.32v-13a1.43,1.43,0,1,1,2.85,0v13h1.13v-7.14a1.43,1.43,0,1,1,2.85,0v5h68.1a99.49,99.49,0,0,0,5-23H116.59v5.32H93.11v-7.13H93l-4.62,2.93v-2.47H73.81v6.67H50.33v-5.32H-.14a99.49,99.49,0,0,0,5,23H72V115.16a1.44,1.44,0,1,1,2.86,0v13.05H76Z" transform="translate(0.63)"/></svg>